<?xml version="1.0" standalone="no"?>
<!DOCTYPE svg PUBLIC "-//W3C//DTD SVG 20010904//EN"
 "http://www.w3.org/TR/2001/REC-SVG-20010904/DTD/svg10.dtd">
<svg version="1.0" xmlns="http://www.w3.org/2000/svg"
 width="512.000000pt" height="512.000000pt" viewBox="0 0 512.000000 512.000000"
 preserveAspectRatio="xMidYMid meet">

<g transform="translate(0.000000,512.000000) scale(0.100000,-0.100000)"
fill="#000000" stroke="none">
<path d="M2465 5114 c-11 -2 -44 -9 -73 -15 -75 -15 -166 -54 -247 -106 -54
-35 -283 -257 -993 -966 -508 -507 -947 -951 -976 -987 -70 -87 -100 -140
-138 -252 -30 -87 -32 -102 -32 -228 0 -126 2 -141 32 -228 38 -112 68 -165
138 -252 29 -36 468 -480 976 -987 965 -963 980 -977 1124 -1036 100 -40 163
-52 284 -52 123 0 188 12 285 53 148 63 157 71 1123 1035 508 507 947 951 976
987 70 87 100 140 138 252 30 87 32 102 32 228 0 126 -2 141 -32 228 -38 112
-68 165 -138 252 -29 36 -468 480 -976 987 -960 958 -983 979 -1119 1034 -30
12 -76 28 -104 36 -50 14 -243 26 -280 17z m1365 -1524 c70 -36 80 -70 80
-280 0 -210 -10 -244 -80 -280 -38 -19 -58 -20 -505 -20 l-465 0 0 -990 c0
-973 0 -991 -20 -1030 -36 -70 -70 -80 -280 -80 -210 0 -244 10 -280 80 -20
39 -20 57 -20 1030 l0 990 -465 0 c-447 0 -467 1 -505 20 -70 36 -80 70 -80
280 0 208 10 244 78 279 36 20 62 20 1270 21 1216 0 1233 0 1272 -20z"/>
</g>
</svg>
